<svg version="1.1" id="Layer_1" xmlns="http://www.w3.org/2000/svg" xmlns:xlink="http://www.w3.org/1999/xlink" x="0px" y="0px"
	 width="100%" viewBox="0 0 1580 310" enable-background="new 0 0 1580 310" xml:space="preserve">
<path fill="#FFFFFF" opacity="1.000000" stroke="none" 
	d="
M1139.000000,311.000000 
	C759.383423,311.000000 380.266876,311.000000 1.075157,311.000000 
	C1.075157,207.730469 1.075157,104.460876 1.075157,1.095639 
	C527.666687,1.095639 1054.333374,1.095639 1580.970459,1.095639 
	C1580.970459,104.399918 1580.970459,207.699966 1580.970459,311.000000 
	C1433.794067,311.000000 1286.646973,311.000000 1139.000000,311.000000 
M113.186089,203.130173 
	C113.457390,204.864914 113.939339,206.596832 113.962769,208.334915 
	C114.054062,215.106415 113.999992,221.879883 113.999992,229.160767 
	C122.965988,229.160767 131.366364,229.160767 140.262268,229.160767 
	C140.262268,238.071442 140.262268,246.472855 140.262268,254.737381 
	C166.718430,254.737381 192.655853,254.737381 218.686646,254.737381 
	C218.686646,245.748596 218.686646,237.025681 218.686646,227.789764 
	C209.982529,227.789764 201.581421,227.789764 192.865005,227.789764 
	C192.865005,218.999695 192.865005,210.723480 192.865005,201.940247 
	C184.137711,201.940247 175.740356,201.940247 167.339661,201.940247 
	C167.339661,193.361145 167.339661,185.303986 167.339661,176.737900 
	C184.736313,176.737900 201.798401,176.737900 218.737854,176.737900 
	C218.737854,150.282516 218.737854,124.345085 218.737854,97.892181 
	C210.088486,97.892181 201.687973,97.892181 192.790649,97.892181 
	C192.790649,88.983475 192.790649,80.582375 192.790649,72.233887 
	C140.336853,72.233887 88.401360,72.233887 36.280151,72.233887 
	C36.280151,133.187393 36.280151,193.906784 36.280151,254.669861 
	C53.951302,254.669861 71.340332,254.669861 89.243042,254.669861 
	C89.243042,237.283051 89.243042,220.221344 89.243042,203.018250 
	C97.251472,203.018250 104.743393,203.018250 113.186089,203.130173 
M973.415283,203.000000 
	C975.514038,203.000000 977.612854,203.000000 980.218262,203.000000 
	C980.218262,212.026016 980.218262,220.427002 980.218262,229.142456 
	C989.007629,229.142456 997.283630,229.142456 1006.066650,229.142456 
	C1006.066650,237.868240 1006.066650,246.267975 1006.066650,254.659470 
	C1032.640381,254.659470 1058.694946,254.659470 1084.609009,254.659470 
	C1084.609009,245.588455 1084.609009,236.862595 1084.609009,227.811523 
	C1075.945068,227.811523 1067.670166,227.811523 1058.887207,227.811523 
	C1058.887207,219.083496 1058.887207,210.682816 1058.887207,201.786301 
	C1049.978516,201.786301 1041.579468,201.786301 1033.239502,201.786301 
	C1033.239502,193.327789 1033.239502,185.389297 1033.239502,176.938782 
	C1050.531616,176.938782 1067.593262,176.938782 1084.662598,176.938782 
	C1084.662598,150.366104 1084.662598,124.311584 1084.662598,97.742065 
	C1075.932983,97.742065 1067.531738,97.742065 1058.817871,97.742065 
	C1058.817871,88.951439 1058.817871,80.676376 1058.817871,72.306816 
	C1006.424194,72.306816 954.372070,72.306816 902.351013,72.306816 
	C902.351013,133.332565 902.351013,194.050812 902.351013,254.599060 
	C920.093994,254.599060 937.483459,254.599060 955.205200,254.599060 
	C955.205200,237.260269 955.205200,220.320740 955.205200,203.000000 
	C961.170044,203.000000 966.801331,203.000000 973.415283,203.000000 
M1224.000000,144.383682 
	C1224.000000,137.632614 1224.000000,130.881561 1224.000000,123.815399 
	C1214.949219,123.815399 1206.673706,123.815399 1197.889282,123.815399 
	C1197.889282,115.085861 1197.889282,106.684608 1197.889282,97.786438 
	C1188.979004,97.786438 1180.579346,97.786438 1171.860352,97.786438 
	C1171.860352,88.995110 1171.860352,80.718475 1171.860352,72.292130 
	C1154.127808,72.292130 1136.738403,72.292130 1119.343018,72.292130 
	C1119.343018,133.307571 1119.343018,194.030243 1119.343018,254.605560 
	C1137.079956,254.605560 1154.471313,254.605560 1172.196045,254.605560 
	C1172.196045,219.939133 1172.196045,185.666183 1172.196045,151.320297 
	C1180.598145,151.320297 1188.655151,151.320297 1197.224731,151.320297 
	C1197.224731,160.032425 1197.224731,168.434143 1197.224731,177.150864 
	C1206.016357,177.150864 1214.292969,177.150864 1223.076904,177.150864 
	C1223.076904,185.879395 1223.076904,194.279770 1223.076904,203.179840 
	C1231.985596,203.179840 1240.387329,203.179840 1249.283203,203.179840 
	C1249.283203,220.755981 1249.283203,237.818176 1249.283203,254.725494 
	C1267.076294,254.725494 1284.348999,254.725494 1301.948486,254.725494 
	C1301.948486,193.697433 1301.948486,132.944626 1301.948486,72.245193 
	C1283.985596,72.245193 1266.713501,72.245193 1248.925537,72.245193 
	C1248.925537,98.211914 1248.925537,123.938728 1248.925537,149.829117 
	C1240.469116,149.829117 1232.531006,149.829117 1224.264404,149.829117 
	C1224.170532,148.239670 1224.085327,146.797089 1224.000000,144.383682 
M252.000000,219.500000 
	C252.000000,231.255829 252.000000,243.011658 252.000000,254.617477 
	C313.403809,254.617477 374.118317,254.617477 434.744659,254.617477 
	C434.744659,245.628067 434.744659,237.023621 434.744659,227.914459 
	C391.440063,227.914459 348.387482,227.914459 305.345215,227.914459 
	C305.345215,210.681610 305.345215,193.960388 305.345215,176.732819 
	C340.075897,176.732819 374.463776,176.732819 408.737976,176.732819 
	C408.737976,167.614380 408.737976,159.009384 408.737976,149.899261 
	C374.092163,149.899261 339.704346,149.899261 305.353760,149.899261 
	C305.353760,132.664291 305.353760,115.942879 305.353760,98.717606 
	C348.758331,98.717606 391.810913,98.717606 434.731354,98.717606 
	C434.731354,89.600754 434.731354,80.995590 434.731354,72.306870 
	C373.748138,72.306870 313.034058,72.306870 252.000000,72.306870 
	C252.000000,121.242020 252.000000,169.871017 252.000000,219.500000 
M774.533691,176.000000 
	C771.434937,176.000000 768.336121,176.000000 764.752319,176.000000 
	C764.752319,166.942322 764.752319,158.543808 764.752319,149.835434 
	C755.968140,149.835434 747.694946,149.835434 738.928101,149.835434 
	C738.928101,123.785851 738.928101,98.068726 738.928101,72.329956 
	C721.038086,72.329956 703.654419,72.329956 686.362183,72.329956 
	C686.362183,107.371765 686.362183,142.082428 686.362183,177.127289 
	C694.993713,177.127289 703.267212,177.127289 712.044189,177.127289 
	C712.044189,185.847122 712.044189,194.242691 712.044189,203.137726 
	C720.943542,203.137726 729.341675,203.137726 738.231323,203.137726 
	C738.231323,212.040771 738.231323,220.439255 738.231323,229.148193 
	C747.015198,229.148193 755.288574,229.148193 764.065063,229.148193 
	C764.065063,237.869232 764.065063,246.263947 764.065063,254.663864 
	C773.303833,254.663864 782.024841,254.663864 791.251831,254.663864 
	C791.251831,245.938019 791.251831,237.539490 791.251831,228.831268 
	C800.036194,228.831268 808.309265,228.831268 817.085632,228.831268 
	C817.085632,220.109909 817.085632,211.712875 817.085632,202.820816 
	C825.986511,202.820816 834.383972,202.820816 843.272766,202.820816 
	C843.272766,193.916321 843.272766,185.518112 843.272766,176.810364 
	C852.057434,176.810364 860.329712,176.810364 868.704285,176.810364 
	C868.704285,141.762192 868.704285,107.052055 868.704285,72.337524 
	C851.022766,72.337524 833.639038,72.337524 815.754883,72.337524 
	C815.754883,98.389359 815.754883,124.106583 815.754883,150.152374 
	C806.980469,150.152374 798.707153,150.152374 789.930786,150.152374 
	C789.930786,158.873428 789.930786,167.268768 789.930786,176.000000 
	C784.789307,176.000000 780.154846,176.000000 774.533691,176.000000 
M503.549622,99.000000 
	C517.966919,99.000000 532.384155,99.000000 547.297241,99.000000 
	C547.297241,151.438278 547.297241,203.154053 547.297241,254.727737 
	C565.075500,254.727737 582.344971,254.727737 600.116943,254.727737 
	C600.116943,202.740891 600.116943,151.023758 600.116943,98.795959 
	C617.677917,98.795959 634.738159,98.795959 651.767883,98.795959 
	C651.767883,89.675095 651.767883,81.071091 651.767883,72.271629 
	C599.487305,72.271629 547.439087,72.271629 495.321228,72.271629 
	C495.321228,81.268700 495.321228,89.990959 495.321228,99.000000 
	C497.946533,99.000000 500.257599,99.000000 503.549622,99.000000 
M1436.987915,232.365219 
	C1440.360962,215.055176 1443.734009,197.745148 1447.161621,180.155518 
	C1438.468872,180.155518 1430.509644,180.155518 1422.205200,180.155518 
	C1420.027588,190.511093 1417.862061,200.809097 1415.696655,211.107101 
	C1415.266968,211.107910 1414.837402,211.108704 1414.407837,211.109497 
	C1408.029053,200.767319 1401.650391,190.425140 1395.363281,180.231567 
	C1388.222290,180.231567 1381.261475,180.231567 1374.243896,180.231567 
	C1369.350342,204.779175 1364.498901,229.115280 1359.591919,253.729950 
	C1368.572632,253.729950 1376.661377,253.729950 1384.550903,253.729950 
	C1386.640869,243.366425 1388.670410,233.302872 1390.972656,221.886993 
	C1392.757935,224.469498 1393.715820,225.746521 1394.560425,227.094467 
	C1399.662964,235.237625 1404.678223,243.436523 1409.894409,251.505768 
	C1410.632202,252.647018 1412.281982,253.838104 1413.552734,253.887177 
	C1419.850342,254.130371 1426.162476,253.998016 1432.375854,253.998016 
	C1433.941895,246.840179 1435.430542,240.036057 1436.987915,232.365219 
M1509.489258,227.996414 
	C1508.055298,228.436234 1506.320679,228.503647 1505.237915,229.378265 
	C1499.610840,233.923538 1493.566284,236.942001 1486.309570,234.044617 
	C1474.151855,229.190338 1475.326904,215.650330 1482.518555,205.966095 
	C1486.044067,201.218857 1491.338867,199.126892 1496.646606,199.288406 
	C1502.536621,199.467651 1507.819336,202.472992 1510.929077,208.322525 
	C1517.258423,203.380966 1523.244995,198.707047 1529.235718,194.029861 
	C1527.082031,187.391937 1521.723633,184.601608 1516.505981,182.101547 
	C1508.876221,178.445618 1500.681641,178.218765 1492.275024,178.903397 
	C1478.149170,180.053802 1467.127319,186.138351 1458.760376,197.549683 
	C1452.082397,206.657730 1451.355835,216.969437 1452.045898,227.587799 
	C1452.592163,235.994125 1456.403809,242.814148 1463.075562,248.020416 
	C1472.912109,255.696243 1484.429565,257.049561 1496.170410,255.839096 
	C1507.010620,254.721466 1516.569824,250.333755 1523.337402,240.430084 
	C1518.841309,236.408951 1514.422241,232.456680 1509.489258,227.996414 
M1330.987793,194.370651 
	C1326.938354,214.088120 1322.888916,233.805603 1318.790283,253.762650 
	C1327.845459,253.762650 1336.280273,253.762650 1344.755859,253.762650 
	C1349.651001,229.213455 1354.501953,204.885040 1359.328857,180.677887 
	C1358.236450,180.277481 1357.933838,180.071106 1357.629761,180.069229 
	C1351.635132,180.031937 1345.633667,180.185760 1339.648071,179.942062 
	C1335.552979,179.775330 1332.444214,179.897186 1332.695312,185.426254 
	C1332.816162,188.086624 1331.606934,190.807404 1330.987793,194.370651 
M1530.045288,237.933670 
	C1529.872437,240.637344 1529.003784,243.523209 1529.655151,246.011047 
	C1531.743652,253.987701 1539.495117,257.149994 1548.510376,254.155640 
	C1554.937012,252.021072 1559.192017,244.666382 1557.378296,238.827591 
	C1555.266724,232.029739 1552.332397,229.263565 1544.481445,229.343704 
	C1538.822632,229.401489 1533.108521,231.102097 1530.045288,237.933670 
z"/>
<path fill="#00AEFF" opacity="1.000000" stroke="none" 
	d="
M112.710693,203.074219 
	C104.743393,203.018250 97.251472,203.018250 89.243042,203.018250 
	C89.243042,220.221344 89.243042,237.283051 89.243042,254.669861 
	C71.340332,254.669861 53.951302,254.669861 36.280151,254.669861 
	C36.280151,193.906784 36.280151,133.187393 36.280151,72.233887 
	C88.401360,72.233887 140.336853,72.233887 192.790649,72.233887 
	C192.790649,80.582375 192.790649,88.983475 192.790649,97.892181 
	C201.687973,97.892181 210.088486,97.892181 218.737854,97.892181 
	C218.737854,124.345085 218.737854,150.282516 218.737854,176.737900 
	C201.798401,176.737900 184.736313,176.737900 167.339661,176.737900 
	C167.339661,185.303986 167.339661,193.361145 167.339661,201.940247 
	C175.740356,201.940247 184.137711,201.940247 192.865005,201.940247 
	C192.865005,210.723480 192.865005,218.999695 192.865005,227.789764 
	C201.581421,227.789764 209.982529,227.789764 218.686646,227.789764 
	C218.686646,237.025681 218.686646,245.748596 218.686646,254.737381 
	C192.655853,254.737381 166.718430,254.737381 140.262268,254.737381 
	C140.262268,246.472855 140.262268,238.071442 140.262268,229.160767 
	C131.366364,229.160767 122.965988,229.160767 113.999992,229.160767 
	C113.999992,221.879883 114.054062,215.106415 113.962769,208.334915 
	C113.939339,206.596832 113.457390,204.864914 112.710693,203.074219 
M165.866745,149.204834 
	C165.866745,132.610840 165.866745,116.016838 165.866745,99.276276 
	C140.121429,99.276276 114.751198,99.276276 89.298737,99.276276 
	C89.298737,124.924004 89.298737,150.294357 89.298737,175.668930 
	C106.310349,175.668930 123.021065,175.668930 140.236725,175.668930 
	C140.236725,166.951950 140.236725,158.556992 140.236725,149.870621 
	C148.890762,149.870621 157.037308,149.870621 165.866745,149.204834 
z"/>
<path fill="#00AEFF" opacity="1.000000" stroke="none" 
	d="
M972.923950,203.000000 
	C966.801331,203.000000 961.170044,203.000000 955.205200,203.000000 
	C955.205200,220.320740 955.205200,237.260269 955.205200,254.599060 
	C937.483459,254.599060 920.093994,254.599060 902.351013,254.599060 
	C902.351013,194.050812 902.351013,133.332565 902.351013,72.306816 
	C954.372070,72.306816 1006.424194,72.306816 1058.817871,72.306816 
	C1058.817871,80.676376 1058.817871,88.951439 1058.817871,97.742065 
	C1067.531738,97.742065 1075.932983,97.742065 1084.662598,97.742065 
	C1084.662598,124.311584 1084.662598,150.366104 1084.662598,176.938782 
	C1067.593262,176.938782 1050.531616,176.938782 1033.239502,176.938782 
	C1033.239502,185.389297 1033.239502,193.327789 1033.239502,201.786301 
	C1041.579468,201.786301 1049.978516,201.786301 1058.887207,201.786301 
	C1058.887207,210.682816 1058.887207,219.083496 1058.887207,227.811523 
	C1067.670166,227.811523 1075.945068,227.811523 1084.609009,227.811523 
	C1084.609009,236.862595 1084.609009,245.588455 1084.609009,254.659470 
	C1058.694946,254.659470 1032.640381,254.659470 1006.066650,254.659470 
	C1006.066650,246.267975 1006.066650,237.868240 1006.066650,229.142456 
	C997.283630,229.142456 989.007629,229.142456 980.218262,229.142456 
	C980.218262,220.427002 980.218262,212.026016 980.218262,203.000000 
	C977.612854,203.000000 975.514038,203.000000 972.923950,203.000000 
M955.000000,113.504997 
	C955.000000,134.242340 955.000000,154.979691 955.000000,175.647797 
	C972.356812,175.647797 989.066345,175.647797 1006.277710,175.647797 
	C1006.277710,166.909103 1006.277710,158.515182 1006.277710,149.817902 
	C1015.051758,149.817902 1023.319885,149.817902 1031.713623,149.817902 
	C1031.713623,132.777023 1031.713623,116.068573 1031.713623,99.304832 
	C1006.058289,99.304832 980.690552,99.304832 955.000000,99.304832 
	C955.000000,103.906906 955.000000,108.207657 955.000000,113.504997 
z"/>
<path fill="#00AEFF" opacity="1.000000" stroke="none" 
	d="
M1224.000000,144.869080 
	C1224.085327,146.797089 1224.170532,148.239670 1224.264404,149.829117 
	C1232.531006,149.829117 1240.469116,149.829117 1248.925537,149.829117 
	C1248.925537,123.938728 1248.925537,98.211914 1248.925537,72.245193 
	C1266.713501,72.245193 1283.985596,72.245193 1301.948486,72.245193 
	C1301.948486,132.944626 1301.948486,193.697433 1301.948486,254.725494 
	C1284.348999,254.725494 1267.076294,254.725494 1249.283203,254.725494 
	C1249.283203,237.818176 1249.283203,220.755981 1249.283203,203.179840 
	C1240.387329,203.179840 1231.985596,203.179840 1223.076904,203.179840 
	C1223.076904,194.279770 1223.076904,185.879395 1223.076904,177.150864 
	C1214.292969,177.150864 1206.016357,177.150864 1197.224731,177.150864 
	C1197.224731,168.434143 1197.224731,160.032425 1197.224731,151.320297 
	C1188.655151,151.320297 1180.598145,151.320297 1172.196045,151.320297 
	C1172.196045,185.666183 1172.196045,219.939133 1172.196045,254.605560 
	C1154.471313,254.605560 1137.079956,254.605560 1119.343018,254.605560 
	C1119.343018,194.030243 1119.343018,133.307571 1119.343018,72.292130 
	C1136.738403,72.292130 1154.127808,72.292130 1171.860352,72.292130 
	C1171.860352,80.718475 1171.860352,88.995110 1171.860352,97.786438 
	C1180.579346,97.786438 1188.979004,97.786438 1197.889282,97.786438 
	C1197.889282,106.684608 1197.889282,115.085861 1197.889282,123.815399 
	C1206.673706,123.815399 1214.949219,123.815399 1224.000000,123.815399 
	C1224.000000,130.881561 1224.000000,137.632614 1224.000000,144.869080 
z"/>
<path fill="#00AEFF" opacity="1.000000" stroke="none" 
	d="
M252.000000,219.000000 
	C252.000000,169.871017 252.000000,121.242020 252.000000,72.306870 
	C313.034058,72.306870 373.748138,72.306870 434.731354,72.306870 
	C434.731354,80.995590 434.731354,89.600754 434.731354,98.717606 
	C391.810913,98.717606 348.758331,98.717606 305.353760,98.717606 
	C305.353760,115.942879 305.353760,132.664291 305.353760,149.899261 
	C339.704346,149.899261 374.092163,149.899261 408.737976,149.899261 
	C408.737976,159.009384 408.737976,167.614380 408.737976,176.732819 
	C374.463776,176.732819 340.075897,176.732819 305.345215,176.732819 
	C305.345215,193.960388 305.345215,210.681610 305.345215,227.914459 
	C348.387482,227.914459 391.440063,227.914459 434.744659,227.914459 
	C434.744659,237.023621 434.744659,245.628067 434.744659,254.617477 
	C374.118317,254.617477 313.403809,254.617477 252.000000,254.617477 
	C252.000000,243.011658 252.000000,231.255829 252.000000,219.000000 
z"/>
<path fill="#00AEFF" opacity="1.000000" stroke="none" 
	d="
M775.027039,176.000000 
	C780.154846,176.000000 784.789307,176.000000 789.930786,176.000000 
	C789.930786,167.268768 789.930786,158.873428 789.930786,150.152374 
	C798.707153,150.152374 806.980469,150.152374 815.754883,150.152374 
	C815.754883,124.106583 815.754883,98.389359 815.754883,72.337524 
	C833.639038,72.337524 851.022766,72.337524 868.704285,72.337524 
	C868.704285,107.052055 868.704285,141.762192 868.704285,176.810364 
	C860.329712,176.810364 852.057434,176.810364 843.272766,176.810364 
	C843.272766,185.518112 843.272766,193.916321 843.272766,202.820816 
	C834.383972,202.820816 825.986511,202.820816 817.085632,202.820816 
	C817.085632,211.712875 817.085632,220.109909 817.085632,228.831268 
	C808.309265,228.831268 800.036194,228.831268 791.251831,228.831268 
	C791.251831,237.539490 791.251831,245.938019 791.251831,254.663864 
	C782.024841,254.663864 773.303833,254.663864 764.065063,254.663864 
	C764.065063,246.263947 764.065063,237.869232 764.065063,229.148193 
	C755.288574,229.148193 747.015198,229.148193 738.231323,229.148193 
	C738.231323,220.439255 738.231323,212.040771 738.231323,203.137726 
	C729.341675,203.137726 720.943542,203.137726 712.044189,203.137726 
	C712.044189,194.242691 712.044189,185.847122 712.044189,177.127289 
	C703.267212,177.127289 694.993713,177.127289 686.362183,177.127289 
	C686.362183,142.082428 686.362183,107.371765 686.362183,72.329956 
	C703.654419,72.329956 721.038086,72.329956 738.928101,72.329956 
	C738.928101,98.068726 738.928101,123.785851 738.928101,149.835434 
	C747.694946,149.835434 755.968140,149.835434 764.752319,149.835434 
	C764.752319,158.543808 764.752319,166.942322 764.752319,176.000000 
	C768.336121,176.000000 771.434937,176.000000 775.027039,176.000000 
z"/>
<path fill="#00AEFF" opacity="1.000000" stroke="none" 
	d="
M503.059143,99.000000 
	C500.257599,99.000000 497.946533,99.000000 495.321228,99.000000 
	C495.321228,89.990959 495.321228,81.268700 495.321228,72.271629 
	C547.439087,72.271629 599.487305,72.271629 651.767883,72.271629 
	C651.767883,81.071091 651.767883,89.675095 651.767883,98.795959 
	C634.738159,98.795959 617.677917,98.795959 600.116943,98.795959 
	C600.116943,151.023758 600.116943,202.740891 600.116943,254.727737 
	C582.344971,254.727737 565.075500,254.727737 547.297241,254.727737 
	C547.297241,203.154053 547.297241,151.438278 547.297241,99.000000 
	C532.384155,99.000000 517.966919,99.000000 503.059143,99.000000 
z"/>
<path fill="#00AEFF" opacity="1.000000" stroke="none" 
	d="
M1436.953491,232.798584 
	C1435.430542,240.036057 1433.941895,246.840179 1432.375854,253.998016 
	C1426.162476,253.998016 1419.850342,254.130371 1413.552734,253.887177 
	C1412.281982,253.838104 1410.632202,252.647018 1409.894409,251.505768 
	C1404.678223,243.436523 1399.662964,235.237625 1394.560425,227.094467 
	C1393.715820,225.746521 1392.757935,224.469498 1390.972656,221.886993 
	C1388.670410,233.302872 1386.640869,243.366425 1384.550903,253.729950 
	C1376.661377,253.729950 1368.572632,253.729950 1359.591919,253.729950 
	C1364.498901,229.115280 1369.350342,204.779175 1374.243896,180.231567 
	C1381.261475,180.231567 1388.222290,180.231567 1395.363281,180.231567 
	C1401.650391,190.425140 1408.029053,200.767319 1414.407837,211.109497 
	C1414.837402,211.108704 1415.266968,211.107910 1415.696655,211.107101 
	C1417.862061,200.809097 1420.027588,190.511093 1422.205200,180.155518 
	C1430.509644,180.155518 1438.468872,180.155518 1447.161621,180.155518 
	C1443.734009,197.745148 1440.360962,215.055176 1436.953491,232.798584 
z"/>
<path fill="#00AEFF" opacity="1.000000" stroke="none" 
	d="
M1509.746216,228.250412 
	C1514.422241,232.456680 1518.841309,236.408951 1523.337402,240.430084 
	C1516.569824,250.333755 1507.010620,254.721466 1496.170410,255.839096 
	C1484.429565,257.049561 1472.912109,255.696243 1463.075562,248.020416 
	C1456.403809,242.814148 1452.592163,235.994125 1452.045898,227.587799 
	C1451.355835,216.969437 1452.082397,206.657730 1458.760376,197.549683 
	C1467.127319,186.138351 1478.149170,180.053802 1492.275024,178.903397 
	C1500.681641,178.218765 1508.876221,178.445618 1516.505981,182.101547 
	C1521.723633,184.601608 1527.082031,187.391937 1529.235718,194.029861 
	C1523.244995,198.707047 1517.258423,203.380966 1510.929077,208.322525 
	C1507.819336,202.472992 1502.536621,199.467651 1496.646606,199.288406 
	C1491.338867,199.126892 1486.044067,201.218857 1482.518555,205.966095 
	C1475.326904,215.650330 1474.151855,229.190338 1486.309570,234.044617 
	C1493.566284,236.942001 1499.610840,233.923538 1505.237915,229.378265 
	C1506.320679,228.503647 1508.055298,228.436234 1509.746216,228.250412 
z"/>
<path fill="#00AEFF" opacity="1.000000" stroke="none" 
	d="
M1330.993896,193.935730 
	C1331.606934,190.807404 1332.816162,188.086624 1332.695312,185.426254 
	C1332.444214,179.897186 1335.552979,179.775330 1339.648071,179.942062 
	C1345.633667,180.185760 1351.635132,180.031937 1357.629761,180.069229 
	C1357.933838,180.071106 1358.236450,180.277481 1359.328857,180.677887 
	C1354.501953,204.885040 1349.651001,229.213455 1344.755859,253.762650 
	C1336.280273,253.762650 1327.845459,253.762650 1318.790283,253.762650 
	C1322.888916,233.805603 1326.938354,214.088120 1330.993896,193.935730 
z"/>
<path fill="#00AEFF" opacity="1.000000" stroke="none" 
	d="
M1530.186768,237.562469 
	C1533.108521,231.102097 1538.822632,229.401489 1544.481445,229.343704 
	C1552.332397,229.263565 1555.266724,232.029739 1557.378296,238.827591 
	C1559.192017,244.666382 1554.937012,252.021072 1548.510376,254.155640 
	C1539.495117,257.149994 1531.743652,253.987701 1529.655151,246.011047 
	C1529.003784,243.523209 1529.872437,240.637344 1530.186768,237.562469 
z"/>
<path fill="#FFFFFF" opacity="1.000000" stroke="none" 
	d="
M165.525299,149.537720 
	C157.037308,149.870621 148.890762,149.870621 140.236725,149.870621 
	C140.236725,158.556992 140.236725,166.951950 140.236725,175.668930 
	C123.021065,175.668930 106.310349,175.668930 89.298737,175.668930 
	C89.298737,150.294357 89.298737,124.924004 89.298737,99.276276 
	C114.751198,99.276276 140.121429,99.276276 165.866745,99.276276 
	C165.866745,116.016838 165.866745,132.610840 165.525299,149.537720 
z"/>
<path fill="#FFFFFF" opacity="1.000000" stroke="none" 
	d="
M955.000000,113.006699 
	C955.000000,108.207657 955.000000,103.906906 955.000000,99.304832 
	C980.690552,99.304832 1006.058289,99.304832 1031.713623,99.304832 
	C1031.713623,116.068573 1031.713623,132.777023 1031.713623,149.817902 
	C1023.319885,149.817902 1015.051758,149.817902 1006.277710,149.817902 
	C1006.277710,158.515182 1006.277710,166.909103 1006.277710,175.647797 
	C989.066345,175.647797 972.356812,175.647797 955.000000,175.647797 
	C955.000000,154.979691 955.000000,134.242340 955.000000,113.006699 
z"/>
</svg>